RV (2006)

The executive Bob Munro is stressed, feeling threatened of losing his job and his lifestyle, since his abusive boss Todd Mallory hired the Stanford's geek Laird to work in their soda's company. Bob has promised his wife Jamie Munro, his teenage daughter Cassie Munro and his young son Carl Munro to spend vacations in Hawaii, but Todd demands him to prepare a presentation and attend a business meeting with the owners of a family company in a merging operation scheduled in the same period. Bob hides the truth to his family, rents a recreational vehicle and tries to convince his dysfunctional family that a road trip to the Colorado Rocky Mountains would be good to bring old values back to their family. After many incidents and while in the trailers parking area, the rookie Bob is helped by the bizarre but friendly Gornicke family. They escape from the Gornickes and initiate a journey of difficulties and leaning, retrieving their forgotten family bonds.
 
RIPPER                           : fasamoo
Format                           : AVI
Format/Info                      : Audio Video Interleave
File size                        : 700 MiB
Duration                         : 1h 38mn
Overall bit rate                 : 991 Kbps
Writing application              : VirtualDubMod 1.5.4.1 (build 2178/release)
Writing library                  : VirtualDubMod build 2178/release
Language                         : English
Subtitles                        : None
Genre                            : Comedy

Video
ID                               : 0
Format                           : MPEG-4 Visual
Format profile                   : Advanced Simple@L5
Format settings, BVOP            : Yes
Format settings, QPel            : No
Format settings, GMC             : No warppoints
Format settings, Matrix          : Custom
Codec ID                         : XVID
Codec ID/Hint                    : XviD
Duration                         : 1h 38mn
Bit rate                         : 865 Kbps
Width                            : 560 pixels
Height                           : 240 pixels
Display aspect ratio             : 2.35:1
Frame rate                       : 23.976 fps
Color space                      : YUV
Chroma subsampling               : 4:2:0
Bit depth                        : 8 bits
Scan type                        : Progressive
Bits/(Pixel*Frame)               : 0.269
Stream size                      : 611 MiB (87%)
Writing library                  : XviD 1.2.1 (UTC 2008-12-04)

Audio
ID                               : 1
Format                           : MPEG Audio
Format version                   : Version 1
Format profile                   : Layer 3
Mode                             : Joint stereo
Mode extension                   : MS Stereo
Codec ID                         : 55
Codec ID/Hint                    : MP3
Duration                         : 1h 38mn
Bit rate mode                    : Variable
Bit rate                         : 113 Kbps
Nominal bit rate                 : 128 Kbps
Channel(s)                       : 2 channels
Sampling rate                    : 48.0 KHz
Stream size                      : 79.8 MiB (11%)
Alignment                        : Aligned on interleaves
Interleave, duration             : 24 ms (0.58 video frame)
Interleave, preload duration     : 516 ms
Writing library                  : LAME3.98r
Encoding settings                : -m j -V 4 -q 2 -lowpass 17 --abr 128
 
http://leetleech.org/images/78601233454040645267.png 
http://leetleech.org/images/89463314976363251229.png 
http://leetleech.org/images/94978928034744294822.png 
http://leetleech.org/images/71188211480271697504.png 
http://leetleech.org/images/11142664023100840111.png 
http://leetleech.org/images/06856738772938815370.png

 
http://www.youtube.com/watch?v=QkZXAB-RdbI
 
http://www.imdb.com/title/tt0449089/
 
http://leetleech.org/images/97913465899887526311.png